<svg width="18" height="18" viewBox="0 0 18 18" fill="none" xmlns="http://www.w3.org/2000/svg">
<path d="M16.8104 8.76501C15.1254 5.65001 12.1704 3.76501 8.90035 3.76501C5.63035 3.76501 2.67035 5.65001 1.00035 8.76501L0.860352 9.00001L0.990352 9.24001C2.67535 12.355 5.63035 14.24 8.90035 14.24C12.1704 14.24 15.1304 12.38 16.8104 9.24001L16.9404 9.00001L16.8104 8.76501ZM8.90035 13.215C6.08535 13.215 3.50035 11.645 2.00035 9.00001C3.50035 6.35501 6.08535 4.78501 8.90035 4.78501C11.7154 4.78501 14.2704 6.36001 15.7954 9.00001C14.2704 11.645 11.7104 13.215 8.90035 13.215Z" fill="#000"/>
<path d="M9.04462 5.58499C8.36668 5.58994 7.70541 5.79568 7.14433 6.17623C6.58325 6.55678 6.14753 7.09507 5.8922 7.72311C5.63687 8.35115 5.57339 9.04077 5.70976 9.70487C5.84614 10.369 6.17626 10.9778 6.65844 11.4544C7.14061 11.9309 7.7532 12.254 8.41885 12.3826C9.08449 12.5112 9.77332 12.4397 10.3983 12.1771C11.0234 11.9145 11.5566 11.4725 11.9305 10.907C12.3045 10.3416 12.5026 9.67794 12.4996 8.99999C12.4977 8.54871 12.4067 8.10225 12.2318 7.6862C12.057 7.27015 11.8018 6.89269 11.4809 6.57544C11.1599 6.2582 10.7795 6.00741 10.3614 5.83745C9.94338 5.66749 9.49589 5.5817 9.04462 5.58499ZM9.04462 11.445C8.56574 11.4401 8.09901 11.2937 7.70302 11.0244C7.30704 10.7551 6.99947 10.3747 6.81894 9.93116C6.63841 9.48759 6.59297 9.00057 6.68832 8.53127C6.78368 8.06196 7.01558 7.63129 7.35491 7.29335C7.69423 6.95541 8.12584 6.72526 8.59553 6.63182C9.06523 6.53838 9.55206 6.58581 9.99488 6.76815C10.4377 6.95049 10.8168 7.25961 11.0845 7.65669C11.3522 8.05377 11.4966 8.5211 11.4996 8.99999C11.501 9.32229 11.4383 9.64165 11.3153 9.93955C11.1922 10.2374 11.0113 10.508 10.7829 10.7354C10.5546 10.9628 10.2833 11.1427 9.98492 11.2645C9.68652 11.3863 9.36691 11.4476 9.04462 11.445Z" fill="#000"/>
</svg>
